<?xml version="1.0" encoding="UTF-8" standalone="no"?>
<!-- Created with Inkscape (http://www.inkscape.org/) -->

<svg
   xmlns:dc="http://purl.org/dc/elements/1.1/"
   xmlns:cc="http://creativecommons.org/ns#"
   xmlns:rdf="http://www.w3.org/1999/02/22-rdf-syntax-ns#"
   xmlns:svg="http://www.w3.org/2000/svg"
   xmlns="http://www.w3.org/2000/svg"
   xmlns:xlink="http://www.w3.org/1999/xlink"
   xmlns:sodipodi="http://sodipodi.sourceforge.net/DTD/sodipodi-0.dtd"
   xmlns:inkscape="http://www.inkscape.org/namespaces/inkscape"
   width="185.52022"
   height="30"
   id="svg1307"
   sodipodi:version="0.32"
   inkscape:version="0.47 r22583"
   sodipodi:docname="open-attribute.svg"
   version="1.1"
   inkscape:export-filename="/Users/lilianaquiza/Desktop/open-attribute.png"
   inkscape:export-xdpi="105"
   inkscape:export-ydpi="105">
  <title
     id="title3581">Open  Attribute Butt</title>
  <defs
     id="defs1309">
    <inkscape:perspective
       sodipodi:type="inkscape:persp3d"
       inkscape:vp_x="0 : 24 : 1"
       inkscape:vp_y="0 : 1000 : 0"
       inkscape:vp_z="48 : 24 : 1"
       inkscape:persp3d-origin="24 : 16 : 1"
       id="perspective11" />
    <inkscape:perspective
       id="perspective2885"
       inkscape:persp3d-origin="0.5 : 0.33333333 : 1"
       inkscape:vp_z="1 : 0.5 : 1"
       inkscape:vp_y="0 : 1000 : 0"
       inkscape:vp_x="0 : 0.5 : 1"
       sodipodi:type="inkscape:persp3d" />
    <linearGradient
       inkscape:collect="always"
       xlink:href="#linearGradient7579"
       id="linearGradient6936"
       gradientUnits="userSpaceOnUse"
       gradientTransform="matrix(0.84641071,0,0,1.5780121,6682.1471,1474.2599)"
       x1="-7173"
       y1="-838.98499"
       x2="-7172"
       y2="-660.36603" />
    <linearGradient
       id="linearGradient7579">
      <stop
         id="stop7581"
         offset="0"
         style="stop-color:#cacaca;stop-opacity:1;" />
      <stop
         style="stop-color:#c9c9c9;stop-opacity:1;"
         offset="0.12661244"
         id="stop7615" />
      <stop
         style="stop-color:#c9c9c9;stop-opacity:1;"
         offset="0.20080736"
         id="stop7613" />
      <stop
         style="stop-color:#c9c9c9;stop-opacity:1;"
         offset="0.25905696"
         id="stop7611" />
      <stop
         style="stop-color:#c9c9c9;stop-opacity:1;"
         offset="0.32034242"
         id="stop7609" />
      <stop
         style="stop-color:#c9c9c9;stop-opacity:1;"
         offset="0.38139352"
         id="stop7607" />
      <stop
         style="stop-color:#c8c8c8;stop-opacity:1;"
         offset="0.43900162"
         id="stop7605" />
      <stop
         style="stop-color:#c6c6c6;stop-opacity:1;"
         offset="0.53926909"
         id="stop7603" />
      <stop
         style="stop-color:#c2c2c2;stop-opacity:1;"
         offset="0.6306181"
         id="stop7601" />
      <stop
         style="stop-color:#bababa;stop-opacity:1;"
         offset="0.71752155"
         id="stop7599" />
      <stop
         style="stop-color:#ababab;stop-opacity:1;"
         offset="0.80288315"
         id="stop7597" />
      <stop
         style="stop-color:#8d8d8d;stop-opacity:1;"
         offset="0.93411106"
         id="stop7595" />
      <stop
         id="stop7583"
         offset="1"
         style="stop-color:#8e8e8e;stop-opacity:1;" />
    </linearGradient>
    <linearGradient
       inkscape:collect="always"
       xlink:href="#linearGradient7579"
       id="linearGradient7218"
       gradientUnits="userSpaceOnUse"
       gradientTransform="matrix(0.71648127,0,0,1.3357772,4965.9971,1332.1881)"
       x1="-7173"
       y1="-838.98499"
       x2="-7172"
       y2="-660.36603" />
    <linearGradient
       id="linearGradient7792">
      <stop
         id="stop7794"
         offset="0"
         style="stop-color:#929292;stop-opacity:1;" />
      <stop
         style="stop-color:#919191;stop-opacity:1;"
         offset="0.0078125"
         id="stop7812" />
      <stop
         style="stop-color:#919191;stop-opacity:1;"
         offset="0.015625"
         id="stop7810" />
      <stop
         style="stop-color:#909090;stop-opacity:1;"
         offset="0.03125"
         id="stop7808" />
      <stop
         style="stop-color:#8e8e8e;stop-opacity:1;"
         offset="0.0625"
         id="stop7806" />
      <stop
         style="stop-color:#8a8a8a;stop-opacity:1;"
         offset="0.125"
         id="stop7804" />
      <stop
         style="stop-color:#828282;stop-opacity:1;"
         offset="0.25"
         id="stop7802" />
      <stop
         style="stop-color:#727272;stop-opacity:1;"
         offset="0.5"
         id="stop7800" />
      <stop
         id="stop7796"
         offset="1"
         style="stop-color:#535353;stop-opacity:1;" />
    </linearGradient>
    <linearGradient
       gradientTransform="matrix(3.1665601,0,0,3.1665601,24909.136,3217.4296)"
       gradientUnits="userSpaceOnUse"
       y2="-876.27155"
       x2="-7729.7378"
       y1="-914.8089"
       x1="-7730.7983"
       id="linearGradient7798"
       xlink:href="#linearGradient7792"
       inkscape:collect="always" />
    <linearGradient
       id="linearGradient7818">
      <stop
         id="stop7820"
         offset="0"
         style="stop-color:#1a1a1a;stop-opacity:1;" />
      <stop
         style="stop-color:#1a1a1a;stop-opacity:1;"
         offset="0.00000003"
         id="stop7874" />
      <stop
         style="stop-color:#1a1a1a;stop-opacity:1;"
         offset="0.00000006"
         id="stop7872" />
      <stop
         style="stop-color:#1a1a1a;stop-opacity:1;"
         offset="0.00000012"
         id="stop7870" />
      <stop
         style="stop-color:#1a1a1a;stop-opacity:1;"
         offset="0.00000024"
         id="stop7868" />
      <stop
         style="stop-color:#1a1a1a;stop-opacity:1;"
         offset="0.00000048"
         id="stop7866" />
      <stop
         style="stop-color:#1a1a1a;stop-opacity:1;"
         offset="0.00000096"
         id="stop7864" />
      <stop
         style="stop-color:#1a1a1a;stop-opacity:1;"
         offset="0.00000191"
         id="stop7862" />
      <stop
         style="stop-color:#1a1a1a;stop-opacity:1;"
         offset="0.00000382"
         id="stop7860" />
      <stop
         style="stop-color:#1a1a1a;stop-opacity:1;"
         offset="0.00000763"
         id="stop7858" />
      <stop
         style="stop-color:#1a1a1a;stop-opacity:1;"
         offset="0.00001526"
         id="stop7856" />
      <stop
         style="stop-color:#1a1a1a;stop-opacity:1;"
         offset="0.00003052"
         id="stop7854" />
      <stop
         style="stop-color:#1a1a1a;stop-opacity:1;"
         offset="0.00006103"
         id="stop7852" />
      <stop
         style="stop-color:#1a1a1a;stop-opacity:1;"
         offset="0.00012207"
         id="stop7850" />
      <stop
         style="stop-color:#1a1a1a;stop-opacity:1;"
         offset="0.00024414"
         id="stop7848" />
      <stop
         style="stop-color:#1a1a1a;stop-opacity:1;"
         offset="0.00048828"
         id="stop7846" />
      <stop
         style="stop-color:#1a1a1a;stop-opacity:1;"
         offset="0.00097656"
         id="stop7844" />
      <stop
         style="stop-color:#1a1a1a;stop-opacity:1;"
         offset="0.00195312"
         id="stop7842" />
      <stop
         style="stop-color:#1a1a1a;stop-opacity:1;"
         offset="0.00390625"
         id="stop7840" />
      <stop
         style="stop-color:#1a1a1a;stop-opacity:1;"
         offset="0.0078125"
         id="stop7838" />
      <stop
         style="stop-color:#1a1a1a;stop-opacity:1;"
         offset="0.015625"
         id="stop7836" />
      <stop
         style="stop-color:#1b1b1b;stop-opacity:1;"
         offset="0.03125"
         id="stop7834" />
      <stop
         style="stop-color:#1d1d1d;stop-opacity:1;"
         offset="0.0625"
         id="stop7832" />
      <stop
         style="stop-color:#202020;stop-opacity:1;"
         offset="0.0625"
         id="stop7830" />
      <stop
         style="stop-color:#272727;stop-opacity:1;"
         offset="0.1827884"
         id="stop7828" />
      <stop
         style="stop-color:#353535;stop-opacity:1;"
         offset="0.42747414"
         id="stop7826" />
      <stop
         id="stop7822"
         offset="1"
         style="stop-color:#515151;stop-opacity:1;" />
    </linearGradient>
    <linearGradient
       gradientTransform="matrix(6.446198,0,0,3.1665601,48653.72,3217.769)"
       gradientUnits="userSpaceOnUse"
       y2="-890.27515"
       x2="-7517.252"
       y1="-916.57666"
       x1="-7517.252"
       id="linearGradient7824"
       xlink:href="#linearGradient7818"
       inkscape:collect="always" />
    <inkscape:perspective
       id="perspective3866"
       inkscape:persp3d-origin="325.71936 : 39.184181 : 1"
       inkscape:vp_z="651.43872 : 58.776272 : 1"
       inkscape:vp_y="0 : 1000 : 0"
       inkscape:vp_x="0 : 58.776272 : 1"
       sodipodi:type="inkscape:persp3d" />
    <linearGradient
       inkscape:collect="always"
       xlink:href="#linearGradient7818"
       id="linearGradient3930"
       gradientUnits="userSpaceOnUse"
       gradientTransform="matrix(6.446198,0,0,3.1665601,48015.881,3007.6357)"
       x1="-7517.252"
       y1="-916.57666"
       x2="-7517.252"
       y2="-890.27515" />
    <linearGradient
       inkscape:collect="always"
       xlink:href="#linearGradient7792"
       id="linearGradient3933"
       gradientUnits="userSpaceOnUse"
       gradientTransform="matrix(3.1665601,0,0,3.1665601,24271.296,3007.2963)"
       x1="-7730.7983"
       y1="-914.8089"
       x2="-7729.7378"
       y2="-876.27155" />
    <linearGradient
       inkscape:collect="always"
       xlink:href="#linearGradient7579"
       id="linearGradient3936"
       gradientUnits="userSpaceOnUse"
       gradientTransform="matrix(0.68433409,0,0,0.82347984,4472.0834,674.06861)"
       x1="-7173"
       y1="-838.98499"
       x2="-7172"
       y2="-660.36603" />
    <inkscape:perspective
       id="perspective3177"
       inkscape:persp3d-origin="0.5 : 0.33333333 : 1"
       inkscape:vp_z="1 : 0.5 : 1"
       inkscape:vp_y="0 : 1000 : 0"
       inkscape:vp_x="0 : 0.5 : 1"
       sodipodi:type="inkscape:persp3d" />
    <inkscape:perspective
       id="perspective3345"
       inkscape:persp3d-origin="0.5 : 0.33333333 : 1"
       inkscape:vp_z="1 : 0.5 : 1"
       inkscape:vp_y="0 : 1000 : 0"
       inkscape:vp_x="0 : 0.5 : 1"
       sodipodi:type="inkscape:persp3d" />
    <inkscape:perspective
       id="perspective3495"
       inkscape:persp3d-origin="0.5 : 0.33333333 : 1"
       inkscape:vp_z="1 : 0.5 : 1"
       inkscape:vp_y="0 : 1000 : 0"
       inkscape:vp_x="0 : 0.5 : 1"
       sodipodi:type="inkscape:persp3d" />
    <inkscape:perspective
       id="perspective3569"
       inkscape:persp3d-origin="0.5 : 0.33333333 : 1"
       inkscape:vp_z="1 : 0.5 : 1"
       inkscape:vp_y="0 : 1000 : 0"
       inkscape:vp_x="0 : 0.5 : 1"
       sodipodi:type="inkscape:persp3d" />
    <inkscape:perspective
       id="perspective4930"
       inkscape:persp3d-origin="50 : 33.333333 : 1"
       inkscape:vp_z="100 : 50 : 1"
       inkscape:vp_y="0 : 1000 : 0"
       inkscape:vp_x="0 : 50 : 1"
       sodipodi:type="inkscape:persp3d" />
    <linearGradient
       inkscape:collect="always"
       xlink:href="#linearGradient7579"
       id="linearGradient4958"
       gradientUnits="userSpaceOnUse"
       gradientTransform="matrix(0.68433409,0,0,0.82347984,4472.0834,674.06861)"
       x1="-7173"
       y1="-838.98499"
       x2="-7172"
       y2="-660.36603" />
    <linearGradient
       inkscape:collect="always"
       xlink:href="#linearGradient7579"
       id="linearGradient4973"
       gradientUnits="userSpaceOnUse"
       gradientTransform="matrix(0.33690287,0,0,0.40540538,1944.1738,397.45476)"
       x1="-7173"
       y1="-838.98499"
       x2="-7172"
       y2="-660.36603" />
  </defs>
  <sodipodi:namedview
     id="base"
     pagecolor="#ffffff"
     bordercolor="#666666"
     borderopacity="1.0"
     inkscape:pageopacity="0.0"
     inkscape:pageshadow="2"
     inkscape:zoom="1.8984375"
     inkscape:cx="145.5432"
     inkscape:cy="45.300106"
     inkscape:current-layer="layer1"
     showgrid="true"
     inkscape:grid-bbox="true"
     inkscape:document-units="px"
     inkscape:window-width="1280"
     inkscape:window-height="675"
     inkscape:window-x="0"
     inkscape:window-y="0"
     inkscape:window-maximized="0" />
  <metadata
     id="metadata1312">
    <rdf:RDF>
      <cc:Work
         rdf:about="">
        <dc:format>image/svg+xml</dc:format>
        <dc:type
           rdf:resource="http://purl.org/dc/dcmitype/StillImage" />
        <dc:title>Open  Attribute Butt</dc:title>
        <dc:creator>
          <cc:Agent>
            <dc:title>digitalfredy</dc:title>
          </cc:Agent>
        </dc:creator>
        <dc:subject>
          <rdf:Bag>
            <rdf:li>unread email message</rdf:li>
          </rdf:Bag>
        </dc:subject>
        <cc:license
           rdf:resource="http://creativecommons.org/licenses/publicdomain/" />
        <dc:description>Button for http://openattribute.com wordpress p</dc:description>
      </cc:Work>
      <cc:License
         rdf:about="http://creativecommons.org/licenses/publicdomain/">
        <cc:permits
           rdf:resource="http://creativecommons.org/ns#Reproduction" />
        <cc:permits
           rdf:resource="http://creativecommons.org/ns#Distribution" />
        <cc:permits
           rdf:resource="http://creativecommons.org/ns#DerivativeWorks" />
      </cc:License>
    </rdf:RDF>
  </metadata>
  <g
     id="layer1"
     inkscape:label="Layer 1"
     inkscape:groupmode="layer"
     transform="translate(507.13166,-99.223248)">
    <rect
       style="fill:url(#linearGradient4973);fill-opacity:1;stroke:none"
       id="rect7577"
       width="185.52022"
       height="30"
       x="-507.13165"
       y="99.223251"
       rx="3.5"
       ry="3.5" />
    <g
       style="font-size:19.68219948px;font-style:normal;font-variant:normal;font-weight:normal;font-stretch:normal;text-align:start;line-height:125%;writing-mode:lr-tb;text-anchor:start;fill:#000000;fill-opacity:1;stroke:none;font-family:Arial Rounded MT Bold;-inkscape-font-specification:'Arial Rounded MT Bold,'"
       id="text3575">
      <path
         d="m -458.43189,106.99241 c 1.46078,10e-6 2.71334,0.29794 3.75768,0.89377 1.05073,0.58945 1.8452,1.43197 2.38339,2.52755 0.53817,1.08919 0.80727,2.37058 0.80728,3.84418 -10e-6,1.08919 -0.14737,2.07906 -0.44208,2.96963 -0.29473,0.89057 -0.73681,1.66261 -1.32624,2.31611 -0.58945,0.65352 -1.31344,1.15326 -2.17196,1.49923 -0.85855,0.34598 -1.84201,0.51897 -2.95041,0.51897 -1.10201,0 -2.08868,-0.17619 -2.96002,-0.52858 -0.87135,-0.35879 -1.59854,-0.86173 -2.18157,-1.50884 -0.58304,-0.6471 -1.02512,-1.42554 -1.32624,-2.33534 -0.29472,-0.90978 -0.44208,-1.89325 -0.44208,-2.9504 0,-1.08277 0.15376,-2.07585 0.4613,-2.97924 0.31394,-0.90337 0.76563,-1.67221 1.35507,-2.30651 0.58944,-0.63428 1.30702,-1.118 2.15274,-1.45118 0.84572,-0.33955 1.80676,-0.50934 2.88314,-0.50935 m 4.05561,7.24628 c -2e-5,-1.03152 -0.1666,-1.92529 -0.49975,-2.68132 -0.33317,-0.75601 -0.81049,-1.32623 -1.43195,-1.71066 -0.61508,-0.39081 -1.32305,-0.58622 -2.12391,-0.58624 -0.57023,2e-5 -1.0988,0.10893 -1.58573,0.32676 -0.48053,0.21144 -0.89698,0.52218 -1.24936,0.93221 -0.34598,0.41006 -0.62148,0.93543 -0.82649,1.57612 -0.19862,0.63429 -0.29793,1.34867 -0.29793,2.14313 0,0.80087 0.0993,1.52486 0.29793,2.17196 0.20501,0.64711 0.49012,1.18529 0.85533,1.61455 0.37159,0.42287 0.79445,0.74001 1.26858,0.95144 0.48051,0.21143 1.00588,0.31714 1.57611,0.31714 0.73038,0 1.39991,-0.18259 2.00858,-0.54779 0.61506,-0.3652 1.10199,-0.92901 1.46079,-1.69144 0.36519,-0.76243 0.54778,-1.70105 0.5478,-2.81586"
         style="line-height:125%;font-family:Arial Rounded MT Bold;-inkscape-font-specification:'Arial Rounded MT Bold,'"
         id="path2895" />
      <path
         d="m -446.78403,112.36465 0,0.31714 c 0.49333,-0.60865 1.00589,-1.05393 1.53767,-1.33585 0.53178,-0.2883 1.13403,-0.43246 1.80677,-0.43247 0.80727,1e-5 1.55047,0.20824 2.22962,0.62468 0.67913,0.41646 1.21411,1.02512 1.60495,1.82598 0.39722,0.80088 0.59583,1.74911 0.59584,2.8447 -10e-6,0.80728 -0.11533,1.55049 -0.34597,2.22962 -0.22426,0.67274 -0.53499,1.23975 -0.93222,1.70105 -0.39724,0.4549 -0.86815,0.80728 -1.41273,1.05715 -0.53819,0.24347 -1.11802,0.3652 -1.73949,0.3652 -0.74962,0 -1.38071,-0.15057 -1.89326,-0.45169 -0.50616,-0.30113 -0.98988,-0.74321 -1.45118,-1.32625 l 0,3.94029 c 0,1.15325 -0.41966,1.72988 -1.25897,1.72988 -0.49334,0 -0.82009,-0.15057 -0.98026,-0.45169 -0.16018,-0.29473 -0.24027,-0.7272 -0.24026,-1.29741 l 0,-11.32111 c -10e-6,-0.49973 0.10891,-0.87134 0.32675,-1.11481 0.21784,-0.24986 0.51576,-0.3748 0.89377,-0.37481 0.3716,1e-5 0.67273,0.12815 0.90338,0.38442 0.23706,0.24988 0.35559,0.61187 0.35559,1.08598 m 5.14159,3.81535 c -10e-6,-0.69195 -0.10572,-1.28459 -0.31714,-1.77794 -0.21144,-0.49973 -0.50616,-0.88095 -0.88416,-1.14364 -0.37162,-0.26908 -0.78486,-0.40363 -1.23975,-0.40364 -0.724,10e-6 -1.33586,0.28512 -1.8356,0.85533 -0.49334,0.57023 -0.74001,1.40954 -0.74,2.51794 -1e-5,1.04434 0.24666,1.85802 0.74,2.44105 0.49333,0.57663 1.1052,0.86494 1.8356,0.86494 0.43566,0 0.8393,-0.12493 1.21091,-0.3748 0.3716,-0.25628 0.66952,-0.63749 0.89378,-1.14365 0.22423,-0.50614 0.33635,-1.11801 0.33636,-1.83559"
         style="line-height:125%;font-family:Arial Rounded MT Bold;-inkscape-font-specification:'Arial Rounded MT Bold,'"
         id="path2897" />
      <path
         d="m -429.54288,116.87195 -5.13198,0 c 0.006,0.59585 0.12493,1.12122 0.35558,1.57611 0.23706,0.4549 0.54779,0.79767 0.93222,1.02832 0.39082,0.23065 0.82008,0.34598 1.2878,0.34598 0.31393,0 0.59904,-0.0352 0.85533,-0.10572 0.26268,-0.0769 0.51575,-0.19221 0.75922,-0.34597 0.24346,-0.16018 0.4677,-0.32996 0.67273,-0.50936 0.20502,-0.17939 0.47091,-0.42286 0.79767,-0.73039 0.13454,-0.11532 0.32675,-0.17299 0.57663,-0.17299 0.26908,0 0.48692,0.0737 0.65351,0.22104 0.16657,0.14736 0.24986,0.35559 0.24987,0.62468 -1e-5,0.23706 -0.0929,0.51576 -0.2787,0.83611 -0.18581,0.31394 -0.46772,0.61827 -0.84572,0.91299 -0.37162,0.28831 -0.84253,0.52858 -1.41274,0.72078 -0.56382,0.19221 -1.21413,0.28832 -1.95092,0.28832 -1.68504,0 -2.99526,-0.48052 -3.93067,-1.44157 -0.93542,-0.96104 -1.40313,-2.26486 -1.40313,-3.91145 0,-0.77524 0.11533,-1.49282 0.34598,-2.15274 0.23065,-0.66632 0.56701,-1.23654 1.00909,-1.71066 0.44208,-0.47411 0.98667,-0.8361 1.63378,-1.08598 0.6471,-0.25627 1.36468,-0.38441 2.15274,-0.38442 1.02511,1e-5 1.90286,0.21785 2.63326,0.65351 0.7368,0.42928 1.28779,0.98668 1.653,1.67222 0.36519,0.68555 0.54779,1.38391 0.5478,2.09508 -10e-6,0.65992 -0.18902,1.08918 -0.56702,1.2878 -0.37802,0.19221 -0.9098,0.28831 -1.59533,0.28831 m -5.13198,-1.48962 4.75717,0 c -0.0641,-0.89697 -0.30754,-1.5665 -0.7304,-2.00858 -0.41646,-0.44848 -0.96745,-0.67273 -1.65299,-0.67274 -0.65352,1e-5 -1.1917,0.22746 -1.61456,0.68235 -0.41645,0.44849 -0.66953,1.11481 -0.75922,1.99897"
         style="line-height:125%;font-family:Arial Rounded MT Bold;-inkscape-font-specification:'Arial Rounded MT Bold,'"
         id="path2899" />
      <path
         d="m -422.79635,112.34543 0,0.31714 c 0.4613,-0.60865 0.96425,-1.05393 1.50884,-1.33585 0.551,-0.2883 1.18208,-0.43246 1.89326,-0.43247 0.69195,1e-5 1.31022,0.15057 1.85482,0.45169 0.54458,0.30114 0.95142,0.7272 1.22052,1.27819 0.17298,0.32036 0.2851,0.66633 0.33637,1.03793 0.0512,0.37161 0.0769,0.84573 0.0769,1.42235 l 0,4.8821 c -10e-6,0.52538 -0.12174,0.92261 -0.36519,1.1917 -0.23707,0.26909 -0.54781,0.40364 -0.93222,0.40364 -0.39083,0 -0.70798,-0.13775 -0.95143,-0.41325 -0.24347,-0.2755 -0.36521,-0.66953 -0.3652,-1.18209 l 0,-4.37275 c -10e-6,-0.86493 -0.12174,-1.52485 -0.3652,-1.97975 -0.23706,-0.4613 -0.71438,-0.69195 -1.43195,-0.69196 -0.46772,1e-5 -0.89378,0.14097 -1.27819,0.42286 -0.38442,0.27551 -0.66633,0.65673 -0.84572,1.14365 -0.12814,0.39083 -0.19221,1.12122 -0.19221,2.19118 l 0,3.28677 c 0,0.53178 -0.12494,0.93222 -0.37481,1.20131 -0.24347,0.26268 -0.56061,0.39403 -0.95143,0.39403 -0.37802,0 -0.68875,-0.13775 -0.93222,-0.41325 -0.24346,-0.2755 -0.36519,-0.66953 -0.36519,-1.18209 l 0,-7.58264 c 0,-0.49973 0.10891,-0.87134 0.32675,-1.11481 0.21784,-0.24986 0.51576,-0.3748 0.89377,-0.37481 0.23065,1e-5 0.43888,0.0545 0.62468,0.16338 0.1858,0.10893 0.33316,0.2723 0.44208,0.49013 0.11533,0.21785 0.17299,0.48374 0.17299,0.79767"
         style="line-height:125%;font-family:Arial Rounded MT Bold;-inkscape-font-specification:'Arial Rounded MT Bold,'"
         id="path2901" />
      <path
         d="m -399.18348,119.72625 -0.67273,-1.76832 -5.72782,0 -0.67274,1.80676 c -0.26268,0.70477 -0.48693,1.18209 -0.67273,1.43196 -0.1858,0.24347 -0.49013,0.3652 -0.91299,0.3652 -0.35879,0 -0.67594,-0.13135 -0.95143,-0.39403 -0.2755,-0.26269 -0.41325,-0.56061 -0.41325,-0.89377 0,-0.19221 0.032,-0.39083 0.0961,-0.59585 0.0641,-0.20502 0.16978,-0.49013 0.31715,-0.85533 l 3.60391,-9.14915 c 0.10251,-0.26267 0.22424,-0.57661 0.3652,-0.94182 0.14736,-0.37159 0.30112,-0.67913 0.4613,-0.9226 0.16658,-0.24346 0.38121,-0.43887 0.6439,-0.58624 0.26909,-0.15375 0.59905,-0.23064 0.98988,-0.23065 0.39722,10e-6 0.72718,0.0769 0.98988,0.23065 0.26908,0.14737 0.48371,0.33958 0.6439,0.57662 0.16657,0.23708 0.30432,0.49335 0.41324,0.76884 0.11532,0.26911 0.25948,0.6311 0.43247,1.08598 l 3.68081,9.09149 c 0.2883,0.69195 0.43245,1.1949 0.43247,1.50884 -2e-5,0.32675 -0.13777,0.62788 -0.41325,0.90338 -0.26911,0.26909 -0.59586,0.40364 -0.98027,0.40364 -0.22425,0 -0.41646,-0.0417 -0.57663,-0.12494 -0.16018,-0.0769 -0.29473,-0.1826 -0.40363,-0.31714 -0.10893,-0.14096 -0.22746,-0.35239 -0.35559,-0.63429 -0.12174,-0.28831 -0.22746,-0.54139 -0.31715,-0.75923 m -5.65094,-3.91145 4.20938,0 -2.12391,-5.81432 -2.08547,5.81432"
         style="line-height:125%;font-family:Arial Rounded MT Bold;-inkscape-font-specification:'Arial Rounded MT Bold,'"
         id="path2903" />
      <path
         d="m -394.0515,111.1249 0.28832,0 0,-1.57611 c -1e-5,-0.42285 0.01,-0.75281 0.0288,-0.98988 0.0256,-0.24345 0.0897,-0.45168 0.19221,-0.62468 0.10251,-0.17938 0.24987,-0.32354 0.44208,-0.43247 0.1922,-0.11531 0.40684,-0.17297 0.6439,-0.17299 0.33316,2e-5 0.63428,0.12495 0.90338,0.37481 0.17939,0.16659 0.29151,0.37162 0.33636,0.61507 0.0513,0.23707 0.0769,0.57664 0.0769,1.01871 l 0,1.78754 0.96104,0 c 0.3716,1e-5 0.65351,0.0897 0.84572,0.26909 0.19861,0.173 0.29792,0.39724 0.29793,0.67273 -1e-5,0.3524 -0.14096,0.59906 -0.42286,0.74001 -0.27551,0.14096 -0.67274,0.21144 -1.1917,0.21143 l -0.49013,0 0,4.82444 c -1e-5,0.41005 0.0128,0.7272 0.0384,0.95144 0.032,0.21784 0.10891,0.39723 0.23065,0.53818 0.12814,0.13455 0.33316,0.20182 0.61507,0.20182 0.15376,0 0.36199,-0.0256 0.62468,-0.0769 0.26268,-0.0577 0.4677,-0.0865 0.61507,-0.0865 0.21142,0 0.40043,0.0865 0.56701,0.25948 0.17298,0.16658 0.25948,0.37481 0.25949,0.62468 -10e-6,0.42286 -0.23066,0.74641 -0.69196,0.97065 -0.4613,0.22425 -1.12442,0.33637 -1.98936,0.33637 -0.82009,0 -1.44157,-0.13775 -1.86443,-0.41325 -0.42286,-0.2755 -0.70156,-0.65671 -0.83611,-1.14364 -0.12814,-0.48693 -0.19221,-1.13724 -0.1922,-1.95093 l 0,-5.03587 -0.34598,0 c -0.37801,1e-5 -0.66633,-0.0897 -0.86494,-0.26909 -0.19862,-0.17939 -0.29793,-0.40684 -0.29792,-0.68235 -10e-6,-0.27549 0.10251,-0.49973 0.30753,-0.67273 0.21143,-0.17938 0.51576,-0.26908 0.91299,-0.26909"
         style="line-height:125%;font-family:Arial Rounded MT Bold;-inkscape-font-specification:'Arial Rounded MT Bold,'"
         id="path2905" />
      <path
         d="m -387.09353,111.1249 0.28832,0 0,-1.57611 c -1e-5,-0.42285 0.01,-0.75281 0.0288,-0.98988 0.0256,-0.24345 0.0897,-0.45168 0.19221,-0.62468 0.1025,-0.17938 0.24987,-0.32354 0.44208,-0.43247 0.1922,-0.11531 0.40684,-0.17297 0.6439,-0.17299 0.33316,2e-5 0.63428,0.12495 0.90338,0.37481 0.17939,0.16659 0.29151,0.37162 0.33636,0.61507 0.0513,0.23707 0.0769,0.57664 0.0769,1.01871 l 0,1.78754 0.96104,0 c 0.3716,1e-5 0.65351,0.0897 0.84572,0.26909 0.19861,0.173 0.29792,0.39724 0.29793,0.67273 -1e-5,0.3524 -0.14096,0.59906 -0.42286,0.74001 -0.27551,0.14096 -0.67274,0.21144 -1.1917,0.21143 l -0.49013,0 0,4.82444 c -1e-5,0.41005 0.0128,0.7272 0.0384,0.95144 0.032,0.21784 0.10891,0.39723 0.23065,0.53818 0.12813,0.13455 0.33316,0.20182 0.61507,0.20182 0.15376,0 0.36199,-0.0256 0.62468,-0.0769 0.26268,-0.0577 0.4677,-0.0865 0.61507,-0.0865 0.21142,0 0.40043,0.0865 0.56701,0.25948 0.17298,0.16658 0.25948,0.37481 0.25949,0.62468 -10e-6,0.42286 -0.23066,0.74641 -0.69196,0.97065 -0.4613,0.22425 -1.12442,0.33637 -1.98936,0.33637 -0.8201,0 -1.44157,-0.13775 -1.86443,-0.41325 -0.42286,-0.2755 -0.70156,-0.65671 -0.83611,-1.14364 -0.12814,-0.48693 -0.19221,-1.13724 -0.1922,-1.95093 l 0,-5.03587 -0.34598,0 c -0.37801,1e-5 -0.66633,-0.0897 -0.86494,-0.26909 -0.19862,-0.17939 -0.29793,-0.40684 -0.29793,-0.68235 0,-0.27549 0.10252,-0.49973 0.30754,-0.67273 0.21143,-0.17938 0.51576,-0.26908 0.91299,-0.26909"
         style="line-height:125%;font-family:Arial Rounded MT Bold;-inkscape-font-specification:'Arial Rounded MT Bold,'"
         id="path2907" />
      <path
         d="m -377.67529,117.77533 0,2.19118 c -10e-6,0.53178 -0.12494,0.93222 -0.37481,1.20131 -0.24987,0.26268 -0.56702,0.39403 -0.95143,0.39403 -0.37802,0 -0.68875,-0.13455 -0.93222,-0.40364 -0.24346,-0.26909 -0.3652,-0.66632 -0.36519,-1.1917 l 0,-7.30394 c -10e-6,-1.17887 0.42606,-1.76831 1.27819,-1.76832 0.43567,1e-5 0.74961,0.13776 0.94182,0.41325 0.19221,0.27551 0.29792,0.68235 0.31714,1.22053 0.31394,-0.53818 0.63429,-0.94502 0.96105,-1.22053 0.33316,-0.27549 0.77524,-0.41324 1.32624,-0.41325 0.55099,1e-5 1.08598,0.13776 1.60495,0.41325 0.51895,0.27551 0.77843,0.6407 0.77844,1.09559 -10e-6,0.32036 -0.11213,0.58625 -0.33636,0.79767 -0.21785,0.20503 -0.45491,0.30754 -0.71118,0.30753 -0.0961,1e-5 -0.32996,-0.0576 -0.70156,-0.17299 -0.3652,-0.12172 -0.68875,-0.18259 -0.97065,-0.1826 -0.38443,1e-5 -0.69837,0.10252 -0.94183,0.30754 -0.24347,0.19862 -0.43247,0.49655 -0.56701,0.89377 -0.13456,0.39724 -0.22746,0.87135 -0.27871,1.42235 -0.0513,0.54459 -0.0769,1.21092 -0.0769,1.99897"
         style="line-height:125%;font-family:Arial Rounded MT Bold;-inkscape-font-specification:'Arial Rounded MT Bold,'"
         id="path2909" />
      <path
         d="m -369.00666,112.38387 0,7.58264 c -10e-6,0.52538 -0.12494,0.92261 -0.37481,1.1917 -0.24988,0.26909 -0.56702,0.40364 -0.95144,0.40364 -0.38442,0 -0.69836,-0.13775 -0.94182,-0.41325 -0.23706,-0.2755 -0.35559,-0.66953 -0.35559,-1.18209 l 0,-7.50576 c 0,-0.51895 0.11853,-0.90978 0.35559,-1.17247 0.24346,-0.26268 0.5574,-0.39402 0.94182,-0.39403 0.38442,1e-5 0.70156,0.13135 0.95144,0.39403 0.24987,0.26269 0.3748,0.62789 0.37481,1.09559 m -1.29741,-2.71015 c -0.3652,1e-5 -0.67914,-0.11211 -0.94183,-0.33636 -0.25628,-0.22423 -0.38442,-0.54138 -0.38442,-0.95144 0,-0.37159 0.13134,-0.67592 0.39403,-0.91299 0.26909,-0.24345 0.57983,-0.36518 0.93222,-0.3652 0.33956,2e-5 0.64069,0.10894 0.90338,0.32676 0.26268,0.21785 0.39402,0.53499 0.39403,0.95143 -10e-6,0.40365 -0.12815,0.7208 -0.38442,0.95144 -0.25628,0.22425 -0.56061,0.33637 -0.91299,0.33636"
         style="line-height:125%;font-family:Arial Rounded MT Bold;-inkscape-font-specification:'Arial Rounded MT Bold,'"
         id="path2911" />
      <path
         d="m -363.86508,108.49164 0,4.00755 c 0.49334,-0.51254 0.99628,-0.90337 1.50884,-1.17247 0.51256,-0.27549 1.14684,-0.41324 1.90287,-0.41325 0.87134,1e-5 1.63377,0.20824 2.28729,0.62468 0.65991,0.41005 1.16926,1.00911 1.52806,1.79715 0.36519,0.78166 0.54779,1.71067 0.5478,2.78703 -1e-5,0.79447 -0.10253,1.52487 -0.30754,2.19119 -0.19862,0.65992 -0.49014,1.23334 -0.87455,1.72027 -0.38443,0.48693 -0.85213,0.86494 -1.40312,1.13403 -0.5446,0.26268 -1.14686,0.39403 -1.80677,0.39403 -0.40364,0 -0.78486,-0.0481 -1.14364,-0.14416 -0.35239,-0.0961 -0.65352,-0.22104 -0.90338,-0.37481 -0.24988,-0.16017 -0.46451,-0.32355 -0.6439,-0.49013 -0.173,-0.16658 -0.40365,-0.41645 -0.69196,-0.74961 l 0,0.25948 c 0,0.49333 -0.11853,0.86814 -0.35558,1.12442 -0.23706,0.24987 -0.53819,0.37481 -0.90339,0.37481 -0.3716,0 -0.66953,-0.12494 -0.89377,-0.37481 -0.21784,-0.25628 -0.32675,-0.63109 -0.32675,-1.12442 l 0,-11.45566 c 0,-0.53176 0.10571,-0.9322 0.31714,-1.2013 0.21784,-0.27549 0.51896,-0.41324 0.90338,-0.41325 0.40364,10e-6 0.71438,0.13135 0.93222,0.39403 0.21783,0.25629 0.32675,0.62469 0.32675,1.1052 m 0.12494,7.79407 c 0,1.04434 0.23705,1.84841 0.71117,2.41222 0.48052,0.55741 1.1084,0.83611 1.88365,0.83611 0.65991,0 1.22693,-0.2851 1.70105,-0.85533 0.48051,-0.57662 0.72077,-1.39991 0.72078,-2.46988 -10e-6,-0.69195 -0.0993,-1.2878 -0.29792,-1.78755 -0.19862,-0.49973 -0.48053,-0.88415 -0.84572,-1.15325 -0.3652,-0.27549 -0.79127,-0.41324 -1.27819,-0.41325 -0.49975,10e-6 -0.94503,0.13776 -1.33585,0.41325 -0.39083,0.2691 -0.69837,0.66313 -0.92261,1.18209 -0.22424,0.51256 -0.33636,1.12442 -0.33636,1.83559"
         style="line-height:125%;font-family:Arial Rounded MT Bold;-inkscape-font-specification:'Arial Rounded MT Bold,'"
         id="path2913" />
      <path
         d="m -347.40238,120.08184 0,-0.33637 c -0.31395,0.39724 -0.6439,0.7304 -0.98987,0.99949 -0.34599,0.26909 -0.724,0.46771 -1.13404,0.59585 -0.41005,0.13454 -0.87776,0.20182 -1.40312,0.20182 -0.6343,0 -1.20451,-0.13135 -1.71066,-0.39403 -0.49975,-0.26269 -0.88737,-0.62468 -1.16287,-1.08598 -0.32675,-0.55741 -0.49013,-1.35828 -0.49013,-2.40261 l 0,-5.19926 c 0,-0.52536 0.11853,-0.91618 0.35559,-1.17247 0.23705,-0.26268 0.55099,-0.39402 0.94182,-0.39403 0.39723,1e-5 0.71758,0.13135 0.96105,0.39403 0.24346,0.26269 0.36519,0.65352 0.36519,1.17247 l 0,4.19977 c 0,0.60866 0.0513,1.12122 0.15377,1.53767 0.10251,0.41005 0.28511,0.7336 0.5478,0.97066 0.26908,0.23065 0.63108,0.34597 1.08598,0.34597 0.44207,0 0.85852,-0.13134 1.24936,-0.39403 0.39081,-0.26268 0.67592,-0.60545 0.85533,-1.02831 0.14735,-0.3716 0.22103,-1.18529 0.22104,-2.44106 l 0,-3.19067 c -10e-6,-0.51895 0.12172,-0.90978 0.36519,-1.17247 0.24346,-0.26268 0.5606,-0.39402 0.95144,-0.39403 0.39081,1e-5 0.70475,0.13135 0.94182,0.39403 0.23705,0.25629 0.35558,0.64711 0.35559,1.17247 l 0,7.60187 c -1e-5,0.49974 -0.11534,0.87455 -0.34598,1.12442 -0.22425,0.24987 -0.51577,0.37481 -0.87455,0.37481 -0.3588,0 -0.65672,-0.12814 -0.89377,-0.38442 -0.23066,-0.26269 -0.34599,-0.62788 -0.34598,-1.09559"
         style="line-height:125%;font-family:Arial Rounded MT Bold;-inkscape-font-specification:'Arial Rounded MT Bold,'"
         id="path2915" />
      <path
         d="m -342.19351,111.1249 0.28831,0 0,-1.57611 c 0,-0.42285 0.01,-0.75281 0.0288,-0.98988 0.0256,-0.24345 0.0897,-0.45168 0.19221,-0.62468 0.10251,-0.17938 0.24987,-0.32354 0.44208,-0.43247 0.19221,-0.11531 0.40684,-0.17297 0.6439,-0.17299 0.33316,2e-5 0.63429,0.12495 0.90339,0.37481 0.17939,0.16659 0.29151,0.37162 0.33636,0.61507 0.0512,0.23707 0.0769,0.57664 0.0769,1.01871 l 0,1.78754 0.96105,0 c 0.3716,1e-5 0.6535,0.0897 0.84572,0.26909 0.19861,0.173 0.29792,0.39724 0.29792,0.67273 0,0.3524 -0.14096,0.59906 -0.42286,0.74001 -0.2755,0.14096 -0.67273,0.21144 -1.19169,0.21143 l -0.49014,0 0,4.82444 c 0,0.41005 0.0128,0.7272 0.0384,0.95144 0.032,0.21784 0.10891,0.39723 0.23065,0.53818 0.12813,0.13455 0.33315,0.20182 0.61507,0.20182 0.15376,0 0.36198,-0.0256 0.62468,-0.0769 0.26267,-0.0577 0.4677,-0.0865 0.61506,-0.0865 0.21143,0 0.40043,0.0865 0.56702,0.25948 0.17298,0.16658 0.25948,0.37481 0.25948,0.62468 0,0.42286 -0.23066,0.74641 -0.69195,0.97065 -0.46131,0.22425 -1.12443,0.33637 -1.98936,0.33637 -0.8201,0 -1.44157,-0.13775 -1.86443,-0.41325 -0.42286,-0.2755 -0.70156,-0.65671 -0.83611,-1.14364 -0.12814,-0.48693 -0.19221,-1.13724 -0.19221,-1.95093 l 0,-5.03587 -0.34597,0 c -0.37802,1e-5 -0.66633,-0.0897 -0.86494,-0.26909 -0.19862,-0.17939 -0.29793,-0.40684 -0.29793,-0.68235 0,-0.27549 0.10251,-0.49973 0.30754,-0.67273 0.21143,-0.17938 0.51576,-0.26908 0.91299,-0.26909"
         style="line-height:125%;font-family:Arial Rounded MT Bold;-inkscape-font-specification:'Arial Rounded MT Bold,'"
         id="path2917" />
      <path
         d="m -328.05654,116.87195 -5.13198,0 c 0.006,0.59585 0.12494,1.12122 0.35559,1.57611 0.23705,0.4549 0.54779,0.79767 0.93221,1.02832 0.39082,0.23065 0.82009,0.34598 1.2878,0.34598 0.31394,0 0.59905,-0.0352 0.85533,-0.10572 0.26268,-0.0769 0.51576,-0.19221 0.75923,-0.34597 0.24346,-0.16018 0.4677,-0.32996 0.67273,-0.50936 0.20502,-0.17939 0.4709,-0.42286 0.79767,-0.73039 0.13454,-0.11532 0.32674,-0.17299 0.57663,-0.17299 0.26908,0 0.48691,0.0737 0.65351,0.22104 0.16657,0.14736 0.24986,0.35559 0.24987,0.62468 -10e-6,0.23706 -0.0929,0.51576 -0.27871,0.83611 -0.18581,0.31394 -0.46771,0.61827 -0.84572,0.91299 -0.37161,0.28831 -0.84252,0.52858 -1.41273,0.72078 -0.56382,0.19221 -1.21413,0.28832 -1.95092,0.28832 -1.68504,0 -2.99526,-0.48052 -3.93068,-1.44157 -0.93541,-0.96104 -1.40312,-2.26486 -1.40312,-3.91145 0,-0.77524 0.11532,-1.49282 0.34597,-2.15274 0.23065,-0.66632 0.56702,-1.23654 1.0091,-1.71066 0.44208,-0.47411 0.98667,-0.8361 1.63378,-1.08598 0.6471,-0.25627 1.36468,-0.38441 2.15274,-0.38442 1.02511,1e-5 1.90286,0.21785 2.63326,0.65351 0.73679,0.42928 1.28779,0.98668 1.653,1.67222 0.36519,0.68555 0.54778,1.38391 0.54779,2.09508 -1e-5,0.65992 -0.18901,1.08918 -0.56701,1.2878 -0.37802,0.19221 -0.9098,0.28831 -1.59534,0.28831 m -5.13198,-1.48962 4.75718,0 c -0.0641,-0.89697 -0.30755,-1.5665 -0.7304,-2.00858 -0.41646,-0.44848 -0.96746,-0.67273 -1.653,-0.67274 -0.65351,1e-5 -1.1917,0.22746 -1.61455,0.68235 -0.41646,0.44849 -0.66953,1.11481 -0.75923,1.99897"
         style="line-height:125%;font-family:Arial Rounded MT Bold;-inkscape-font-specification:'Arial Rounded MT Bold,'"
         id="path2919" />
    </g>
    <g
       transform="matrix(0.29323228,0,0,0.29323228,-504.67804,98.334018)"
       id="g3218">
      <g
         id="g3044">
        <path
           inkscape:connector-curvature="0"
           d="m 80.461,29.979 c 4.852,6.915 7.689,15.26 7.725,24.265 0.027,8.969 -2.727,17.305 -7.473,24.231 l 5.694,3.82 c 5.526,-8.009 8.739,-17.68 8.704,-28.077 -0.037,-10.404 -3.336,-20.06 -8.926,-28.067 l -5.724,3.828 z"
           id="path3046" />
        <path
           inkscape:connector-curvature="0"
           d="m 92.292,22.718 c 6.291,8.982 9.98,19.806 10.019,31.494 0.043,11.683 -3.562,22.527 -9.765,31.54 l 5.772,3.733 c 6.936,-10.067 10.968,-22.23 10.925,-35.292 -0.044,-13.08 -4.195,-25.238 -11.25,-35.305 l -5.701,3.83 z"
           id="path3048" />
      </g>
      <g
         id="g3050">
        <path
           inkscape:connector-curvature="0"
           d="m 33.539,26.467 c -5.673,7.857 -9.15,17.429 -9.472,27.833 -0.315,10.403 2.557,20.152 7.737,28.317 l 5.667,-3.68 C 33.018,71.888 30.554,63.481 30.831,54.505 31.105,45.504 34.1,37.227 39.026,30.444 l -5.487,-3.977 z"
           id="path3052" />
        <path
           inkscape:connector-curvature="0"
           d="M 22.209,18.888 C 15.048,28.768 10.67,40.82 10.273,53.9 9.874,66.967 13.482,79.23 19.981,89.485 l 5.738,-3.587 C 19.906,76.729 16.678,65.782 17.04,54.106 17.389,42.417 21.281,31.685 27.669,22.867 l -5.46,-3.979 z"
           id="path3054" />
      </g>
      <g
         transform="matrix(1.3386058,0,0,1.3386058,10.516708,15.403907)"
         id="g3170">
        <path
           inkscape:connector-curvature="0"
           id="path3164"
           d="M 46.129,20.557 V 33.642 H 42.473 V 49.184 H 32.529 V 33.643 H 28.873 V 20.557 c 0,-0.572 0.2,-1.057 0.599,-1.457 0.401,-0.399 0.887,-0.6 1.457,-0.6 h 13.144 c 0.533,0 1.01,0.2 1.428,0.6 0.417,0.4 0.628,0.886 0.628,1.457 z" />
        <path
           inkscape:connector-curvature="0"
           id="path3142"
           d="m 33.042,12.329 c 0,-3.008 1.485,-4.514 4.458,-4.514 2.973,0 4.457,1.504 4.457,4.514 0,2.971 -1.486,4.457 -4.457,4.457 -2.971,0 -4.458,-1.486 -4.458,-4.457 z" />
      </g>
    </g>
  </g>
</svg>
